<?xml version="1.0" encoding="iso-8859-1"?>
<!-- Generator: Adobe Illustrator 19.0.0, SVG Export Plug-In . SVG Version: 6.00 Build 0)  -->
<svg xmlns="http://www.w3.org/2000/svg" xmlns:xlink="http://www.w3.org/1999/xlink" version="1.1" id="Capa_1" x="0px" y="0px" viewBox="0 0 512 512" style="enable-background:new 0 0 512 512;" xml:space="preserve" width="512px" height="512px">
<g>
	<g>
		<path d="M453.776,229.702V87.342c0-28.948-23.551-52.499-52.499-52.499H110.721c-28.948,0-52.497,23.551-52.497,52.499v142.36    C24.868,237.726,0,267.793,0,303.576v106.183c0,8.424,6.829,15.253,15.253,15.253h42.97v36.891    c0,8.424,6.829,15.253,15.253,15.253c8.424,0,15.253-6.829,15.253-15.253v-36.891h334.54v36.891    c0,8.424,6.829,15.253,15.253,15.253c8.424,0,15.253-6.829,15.253-15.253v-36.891h42.97c8.424,0,15.253-6.829,15.253-15.253    V303.576C512,267.793,487.132,237.726,453.776,229.702z M88.73,87.342c0-12.126,9.866-21.992,21.991-21.992h290.557    c12.126,0,21.992,9.866,21.992,21.992v140.242h-50.405V203.52c0-39.87-32.437-72.306-72.306-72.306h-89.116    c-39.87,0-72.306,32.437-72.306,72.306v24.063H88.73V87.342z M342.359,203.52v24.063H169.641V203.52    c0-23.049,18.751-41.8,41.8-41.8h89.117C323.606,161.719,342.359,180.472,342.359,203.52z M30.506,394.506v-90.93    c0-25.081,20.405-45.486,45.486-45.486h360.014c25.081,0,45.486,20.405,45.486,45.486v90.93H30.506z" fill="#006DF0"/>
	</g>
</g>
<g>
</g>
<g>
</g>
<g>
</g>
<g>
</g>
<g>
</g>
<g>
</g>
<g>
</g>
<g>
</g>
<g>
</g>
<g>
</g>
<g>
</g>
<g>
</g>
<g>
</g>
<g>
</g>
<g>
</g>
</svg>
